<?xml version="1.0" encoding="UTF-8"?>
<svg width="720" height="420" viewBox="0 0 720 420" xmlns="http://www.w3.org/2000/svg" role="img" aria-labelledby="title">
  <title>Website mockup: laptop and phone</title>
  <rect width="720" height="420" fill="#f8fafc"/>
  <!-- Laptop -->
  <rect x="80" y="80" rx="10" ry="10" width="420" height="260" fill="#0f172a"/>
  <rect x="90" y="90" rx="6" ry="6" width="400" height="220" fill="#111827"/>
  <rect x="90" y="90" width="400" height="60" fill="#1f2937"/>
  <circle cx="280" cy="120" r="6" fill="#9ca3af"/>
  <rect x="110" y="170" width="180" height="16" rx="4" fill="#60a5fa"/>
  <rect x="110" y="200" width="300" height="12" rx="4" fill="#334155"/>
  <rect x="110" y="220" width="280" height="12" rx="4" fill="#334155"/>
  <rect x="110" y="240" width="240" height="12" rx="4" fill="#334155"/>
  <!-- Phone -->
  <rect x="540" y="120" rx="28" ry="28" width="90" height="180" fill="#0f172a"/>
  <rect x="548" y="130" rx="22" ry="22" width="74" height="160" fill="#111827"/>
  <rect x="555" y="150" width="60" height="12" rx="6" fill="#60a5fa"/>
  <rect x="555" y="170" width="60" height="10" rx="5" fill="#334155"/>
  <rect x="555" y="186" width="50" height="10" rx="5" fill="#334155"/>
  <rect x="555" y="202" width="40" height="10" rx="5" fill="#334155"/>
</svg>
